<?xml version="1.0" encoding="UTF-8" standalone="no"?>
<svg
   viewBox="0 0 64 64"
   width="200"
   height="200"
   role="img"
   aria-labelledby="hostedPrivacyTitle"
   version="1.1"
   id="svg5"
   sodipodi:docname="hosted-privacy.svg"
   inkscape:version="1.4 (86a8ad7, 2024-10-11)"
   xmlns:inkscape="http://www.inkscape.org/namespaces/inkscape"
   xmlns:sodipodi="http://sodipodi.sourceforge.net/DTD/sodipodi-0.dtd"
   xmlns="http://www.w3.org/2000/svg"
   xmlns:svg="http://www.w3.org/2000/svg">
  <sodipodi:namedview
     id="namedview5"
     pagecolor="#ffffff"
     bordercolor="#000000"
     borderopacity="0.25"
     inkscape:showpageshadow="2"
     inkscape:pageopacity="0.0"
     inkscape:pagecheckerboard="0"
     inkscape:deskcolor="#d1d1d1"
     inkscape:zoom="16.14"
     inkscape:cx="112.17472"
     inkscape:cy="124.69021"
     inkscape:window-width="1920"
     inkscape:window-height="1009"
     inkscape:window-x="-8"
     inkscape:window-y="-8"
     inkscape:window-maximized="1"
     inkscape:current-layer="g14" />
  <title
     id="hostedPrivacyTitle">Hosted and privacy-focused icon</title>
  <defs
     id="defs2">
    <linearGradient
       id="s1"
       x1="13.223356"
       x2="44.077853"
       gradientTransform="matrix(0.90748521,0,0,1.1019463,6,6)"
       y1="1.8149704"
       y2="1.8149704"
       gradientUnits="userSpaceOnUse">
      <stop
         offset="0%"
         stop-color="#60A5FA"
         id="stop1" />
      <stop
         offset="100%"
         stop-color="#2563EB"
         id="stop2" />
    </linearGradient>
  </defs>
  <path
     d="m 32,8 c 8,0 14,5 14,10 v 6 C 46,32 40,38 32,42 24,38 18,32 18,24 V 18 C 18,13 24,8 32,8 Z"
     fill="url(#s1)"
     opacity="0.95"
     id="path2"
     style="fill:url(#s1)" />
  <g
     id="g14">
    <path
       id="rect2"
       style="opacity:0.9;fill:#ffffff"
       d="m 19.5,26 h 25 c 0.831,0 1.208684,0.679116 1.079416,1.5 C 45.064195,30.771774 42.4111,34 42.4111,34 H 21.60292 c 0,0 -2.237468,-2.469076 -3.246043,-6.539653 C 18.157022,26.653737 18.669,26 19.5,26 Z"
       sodipodi:nodetypes="sssccss" />
    <path
       id="rect3"
       style="opacity:0.88;fill:#ffffff"
       d="m 23.346344,36 h 17.312323 c 0,0 -2.944656,3.125893 -8.635991,6 -0.38053,0.192166 0.335673,0.26947 -0.479538,-0.155244 C 26.338157,39.133032 23.346344,36 23.346344,36 Z"
       sodipodi:nodetypes="ccssc" />
  </g>
  <circle
     cx="50"
     cy="24"
     r="4"
     fill="#10b981"
     id="circle4" />
  <path
     d="M 48.317224,24.475836 49.5,26.2 52.048327,22.110285"
     stroke="#ffffff"
     stroke-width="1.6"
     stroke-linecap="round"
     stroke-linejoin="round"
     fill="none"
     id="path4"
     sodipodi:nodetypes="ccc" />
  <rect
     x="30"
     y="18"
     width="8"
     height="6"
     rx="1"
     fill="#0b1220"
     opacity="0.08"
     id="rect5" />
</svg>
